<svg viewBox="0 0 690 185" xmlns="http://www.w3.org/2000/svg" role="img" aria-label="GEOMETRY">
<title>GEOMETRY</title>
<defs>
<radialGradient id="wm-sph" cx="34%" cy="28%" r="78%"><stop offset="0%" stop-color="#FFFFFF"/><stop offset="52%" stop-color="#FBFAF5"/><stop offset="100%" stop-color="#E3DFD4"/></radialGradient>
<clipPath id="wm-ball"><circle cx="0" cy="0" r="44"/></clipPath>
<linearGradient id="wm-tA" gradientUnits="userSpaceOnUse" x1="32.3" y1="-21.7" x2="36.8" y2="-5"><stop offset="0%" stop-color="#A9603F" stop-opacity="0"/><stop offset="100%" stop-color="#A9603F" stop-opacity="0.85"/></linearGradient>
<linearGradient id="wm-tB" gradientUnits="userSpaceOnUse" x1="1.5" y1="28.9" x2="-23.9" y2="19"><stop offset="0%" stop-color="#A9603F" stop-opacity="0"/><stop offset="100%" stop-color="#A9603F" stop-opacity="0.85"/></linearGradient>
<linearGradient id="wm-tC" gradientUnits="userSpaceOnUse" x1="-19.6" y1="-22.1" x2="-12.4" y2="-39.05"><stop offset="0%" stop-color="#A9603F" stop-opacity="0"/><stop offset="100%" stop-color="#A9603F" stop-opacity="0.85"/></linearGradient>
<g id="wm-mark">
<path d="M-37.4 -42.2 A62 56 -25 0 1 44.7 -42.1" fill="none" stroke="#C3BDAE" stroke-width="0.7" stroke-dasharray="2.5 2.5"/>
<circle cx="0" cy="0" r="44" fill="url(#wm-sph)"/>
<g clip-path="url(#wm-ball)">
<g transform="rotate(-12)" fill="none" stroke="#BAB5A9" stroke-width="0.7">
<ellipse rx="44" ry="42.5"/><ellipse rx="31" ry="42.5"/><ellipse rx="17" ry="42.5"/>
<line x1="0" y1="-42.5" x2="0" y2="42.5"/>
<ellipse rx="44" ry="11.4"/>
<ellipse cy="-21.3" rx="38.1" ry="9.9"/><ellipse cy="21.3" rx="38.1" ry="9.9"/>
<ellipse cy="-36.8" rx="22" ry="5.7"/><ellipse cy="36.8" rx="22" ry="5.7"/>
<g stroke="#8F8879" stroke-width="0.9">
<path d="M-44 0 A44 11.4 0 0 0 44 0"/>
<path d="M-38.1 -21.3 A38.1 9.9 0 0 0 38.1 -21.3"/>
<path d="M-38.1 21.3 A38.1 9.9 0 0 0 38.1 21.3"/>
<path d="M-22 -36.8 A22 5.7 0 0 0 22 -36.8"/>
<path d="M-22 36.8 A22 5.7 0 0 0 22 36.8"/>
</g>
</g>
<ellipse cx="-25" cy="-26" rx="15" ry="9" transform="rotate(-32 -25 -26)" fill="#FFFFFF" opacity="0.75"/>
<path d="M44 0a44 44 0 0 1-44 44 44 44 0 0 1-31.1-12.9 52 52 0 0 0 75.1-31.1z" fill="#B8B2A3" opacity="0.28"/>
<path d="M32.3 -21.7 A44 16 -22 0 1 36.8 -5" fill="none" stroke="url(#wm-tA)" stroke-width="1.7" stroke-linecap="round"/>
<path d="M1.5 28.9 A40 28 18 0 1 -23.9 19" fill="none" stroke="url(#wm-tB)" stroke-width="1.5" stroke-linecap="round"/>
<path d="M-19.6 -22.1 A20 43 -8 0 1 -12.4 -39.05" fill="none" stroke="url(#wm-tC)" stroke-width="1.3" stroke-linecap="round"/>
<circle cx="-12.4" cy="-39.05" r="5.5" fill="none" stroke="#A9603F" stroke-width="0.7" opacity="0.4"/>
</g>
<circle cx="0" cy="0" r="44" fill="none" stroke="#24231F" stroke-width="1.6"/>
<circle cx="36.8" cy="-5" r="3" fill="#A9603F"/>
<circle cx="-23.9" cy="19" r="2.5" fill="#A9603F"/>
<circle cx="-12.4" cy="-39.05" r="2.2" fill="#A9603F"/>
<path d="M7.6 -57 L-12.4 -39.05" stroke="#A9603F" stroke-width="0.9" stroke-dasharray="2.5 2" opacity="0.5"/>
<g transform="translate(7.6 -57) rotate(-20)">
<line x1="-3.4" y1="0" x2="-5.2" y2="0" stroke="#24231F" stroke-width="1"/>
<line x1="3.4" y1="0" x2="5.2" y2="0" stroke="#24231F" stroke-width="1"/>
<rect x="-13.2" y="-3" width="8" height="6" rx="0.8" fill="#A9603F"/>
<rect x="5.2" y="-3" width="8" height="6" rx="0.8" fill="#A9603F"/>
<line x1="-9.2" y1="-2.6" x2="-9.2" y2="2.6" stroke="#FAF8F3" stroke-width="0.7"/>
<line x1="9.2" y1="-2.6" x2="9.2" y2="2.6" stroke="#FAF8F3" stroke-width="0.7"/>
<rect x="-3.4" y="-2.7" width="6.8" height="5.4" rx="1.3" fill="#24231F"/>
</g>
</g>
</defs>
<text x="182" y="130" text-anchor="end" fill="currentColor" font-family="'Space Grotesk', ui-sans-serif, system-ui, sans-serif" font-size="115" font-weight="400">GE</text>
<text x="281" y="130" text-anchor="start" fill="currentColor" font-family="'Space Grotesk', ui-sans-serif, system-ui, sans-serif" font-size="115" font-weight="400">METRY</text>
<use href="#wm-mark" transform="translate(230 89)"/>
</svg>
