<?xml version="1.0" encoding="UTF-8"?>
<svg id="Calque_1" data-name="Calque 1" xmlns="http://www.w3.org/2000/svg" xmlns:xlink="http://www.w3.org/1999/xlink" viewBox="0 0 95.25 44.09">
  <defs>
    <style>
      .cls-1 {
        fill: #3e51a1;
      }

      .cls-2 {
        fill: #fff;
      }

      .cls-3 {
        fill: none;
      }

      .cls-4 {
        fill: #3d51a1;
      }

      .cls-5 {
        fill: url(#Dégradé_sans_nom_2);
      }

      .cls-6 {
        fill: url(#Dégradé_sans_nom_3);
      }
    </style>
    <linearGradient id="Dégradé_sans_nom_2" data-name="Dégradé sans nom 2" x1="79.96" y1="46.09" x2="79.96" y2="14.01" gradientTransform="translate(0 46.09) scale(1 -1)" gradientUnits="userSpaceOnUse">
      <stop offset="0" stop-color="#3f52a0" stop-opacity=".9"/>
      <stop offset=".14" stop-color="#6f5078" stop-opacity=".93"/>
      <stop offset=".28" stop-color="#9a5054" stop-opacity=".95"/>
      <stop offset=".43" stop-color="#be4f36" stop-opacity=".97"/>
      <stop offset=".58" stop-color="#db4e1f" stop-opacity=".98"/>
      <stop offset=".72" stop-color="#ef4e0f" stop-opacity=".99"/>
      <stop offset=".86" stop-color="#fa4e05"/>
      <stop offset="1" stop-color="#ff4e02"/>
    </linearGradient>
    <linearGradient id="Dégradé_sans_nom_3" data-name="Dégradé sans nom 3" x1="63.27" y1="46.27" x2="63.42" y2="14.06" gradientTransform="translate(0 46.09) scale(1 -1)" gradientUnits="userSpaceOnUse">
      <stop offset=".54" stop-color="#3e51a1"/>
      <stop offset=".62" stop-color="#725075"/>
      <stop offset=".71" stop-color="#a44f4c"/>
      <stop offset=".8" stop-color="#cb4e2c"/>
      <stop offset=".88" stop-color="#e74e15"/>
      <stop offset=".95" stop-color="#f84e07"/>
      <stop offset="1" stop-color="#ff4e02"/>
    </linearGradient>
  </defs>
  <circle class="cls-1" cx="12.72" cy="19.58" r="12.72"/>
  <g>
    <path class="cls-3" d="M15.02,16.21c.01-.24.13-.45.31-.59l-.59-1.19s-.06.02-.09.02l-.34,4.98,1.09-2.5c-.24-.15-.39-.42-.37-.72h0Z"/>
    <path class="cls-3" d="M15.6,19.46c.02-.33.23-.59.51-.71l-.3-1.69h-.02s-.06-.01-.08-.01l-1.16,2.66c.22.16.36.41.34.7-.02.36-.26.64-.59.74l.35,4.74h.02l.54-2.47c-.3-.13-.5-.44-.48-.78.03-.45.4-.79.85-.77h.01l.46-1.64c-.27-.14-.46-.44-.44-.76h0Z"/>
    <path class="cls-3" d="M18.24,21.27c.11-.05.22-.08.35-.08l.45-2.32c-.31-.13-.52-.44-.5-.79.02-.28.18-.53.41-.66l-.66-2.04s-.08.01-.13,0c-.03,0-.05,0-.07-.01l-1.25,3.45c.24.15.4.43.38.73,0,.12-.04.22-.08.32l1.11,1.41h.01Z"/>
    <path class="cls-3" d="M16.13,17.01l.3,1.69h.02s.05,0,.07.01l1.25-3.45c-.24-.15-.4-.43-.38-.73.02-.25.14-.46.33-.6l-.51-1.09c-.07.02-.15.03-.23.03h-.02l-.76,2.68c.27.14.46.44.44.76-.02.33-.23.59-.51.71h0Z"/>
    <path class="cls-3" d="M18.24,13.76c.45.03.79.4.77.85-.02.28-.18.53-.41.66l.66,2.04s.08-.01.13,0c.16.01.3.06.42.15l.88-1.36c-.16-.16-.26-.38-.24-.62,0-.14.05-.26.12-.37l-2.87-2.61c-.05.08-.12.15-.19.2l.51,1.09c.07-.02.15-.03.23-.03h0Z"/>
    <path class="cls-3" d="M17.93,23.41l.26-.73c-.25-.15-.41-.43-.39-.74.01-.18.08-.35.19-.48l-1.06-1.34c-.15.13-.35.2-.56.19h-.01l-.46,1.64c.27.14.46.44.44.76-.01.16-.06.3-.15.42l1.11,1.18c.12-.07.26-.11.4-.12l.24-.79h0Z"/>
    <path class="cls-3" d="M19.63,20.3c.01-.24.13-.44.29-.58l-.43-.8s-.09.01-.13.01l-.45,2.32c.31.13.52.44.5.79-.01.23-.12.43-.27.56l.88.71c.09-.08.2-.13.33-.16l-.06-2.01c-.4-.07-.69-.43-.67-.84h0Z"/>
    <path class="cls-3" d="M19.82,23.56l-.99-.8c-.08.03-.17.04-.27.03-.02,0-.04,0-.06-.01l-.25.72-.23.75c.31.13.53.44.5.79-.03.45-.4.79-.85.77h-.02l-.16.9c.06.02.11.05.16.08l1.33-1.27.93-1.1c-.12-.15-.18-.34-.17-.54,0-.12.04-.23.09-.33h0Z"/>
    <path class="cls-3" d="M21.91,18.79c.02-.26.15-.47.34-.61l-.83-1.86s-.09.02-.14.02l-.55,3.26c.32.13.54.44.51.79-.02.37-.28.66-.62.74l.06,2.01h.02l1.56-3.64c-.22-.16-.36-.41-.35-.7h0Z"/>
    <path class="cls-3" d="M20.04,17.7c.08.13.12.29.12.46-.02.27-.16.49-.36.63l.4.78c.07-.02.14-.03.2-.03l.55-3.25-.91,1.42h0Z"/>
    <g>
      <path class="cls-3" d="M16.13,17.01l.3,1.69h.02s.05,0,.07.01l1.25-3.45c-.24-.15-.4-.43-.38-.73.02-.25.14-.46.33-.6l-.51-1.09c-.07.02-.15.03-.23.03h-.02l-.76,2.68c.27.14.46.44.44.76-.02.33-.23.59-.51.71h0Z"/>
      <path class="cls-3" d="M15.02,16.21c.01-.24.13-.45.31-.59l-.59-1.19s-.06.02-.09.02l-.34,4.98,1.09-2.5c-.24-.15-.39-.42-.37-.72h0Z"/>
      <path class="cls-3" d="M18.24,21.27c.11-.05.22-.08.35-.08l.45-2.32c-.31-.13-.52-.44-.5-.79.02-.28.18-.53.41-.66l-.66-2.04s-.08.01-.13,0c-.03,0-.05,0-.07-.01l-1.25,3.45c.24.15.4.43.38.73,0,.12-.04.22-.08.32l1.11,1.41h.01Z"/>
      <path class="cls-3" d="M15.6,19.46c.02-.33.23-.59.51-.71l-.3-1.69h-.02s-.06-.01-.08-.01l-1.16,2.66c.22.16.36.41.34.7-.02.36-.26.64-.59.74l.35,4.74h.02l.54-2.47c-.3-.13-.5-.44-.48-.78.03-.45.4-.79.85-.77h.01l.46-1.64c-.27-.14-.46-.44-.44-.76h0Z"/>
      <path class="cls-3" d="M18.24,13.76c.45.03.79.4.77.85-.02.28-.18.53-.41.66l.66,2.04s.08-.01.13,0c.16.01.3.06.42.15l.88-1.36c-.16-.16-.26-.38-.24-.62,0-.14.05-.26.12-.37l-2.87-2.61c-.05.08-.12.15-.19.2l.51,1.09c.07-.02.15-.03.23-.03h0Z"/>
      <path class="cls-3" d="M20.04,17.7c.08.13.12.29.12.46-.02.27-.16.49-.36.63l.4.78c.07-.02.14-.03.2-.03l.55-3.25-.91,1.42h0Z"/>
      <path class="cls-3" d="M17.93,23.41l.26-.73c-.25-.15-.41-.43-.39-.74.01-.18.08-.35.19-.48l-1.06-1.34c-.15.13-.35.2-.56.19h-.01l-.46,1.64c.27.14.46.44.44.76-.01.16-.06.3-.15.42l1.11,1.18c.12-.07.26-.11.4-.12l.24-.79h0Z"/>
      <path class="cls-3" d="M21.91,18.79c.02-.26.15-.47.34-.61l-.83-1.86s-.09.02-.14.02l-.55,3.26c.32.13.54.44.51.79-.02.37-.28.66-.62.74l.06,2.01h.02l1.56-3.64c-.22-.16-.36-.41-.35-.7h0Z"/>
      <path class="cls-3" d="M19.82,23.56l-.99-.8c-.08.03-.17.04-.27.03-.02,0-.04,0-.06-.01l-.25.72-.23.75c.31.13.53.44.5.79-.03.45-.4.79-.85.77h-.02l-.16.9c.06.02.11.05.16.08l1.33-1.27.93-1.1c-.12-.15-.18-.34-.17-.54,0-.12.04-.23.09-.33h0Z"/>
      <path class="cls-3" d="M19.63,20.3c.01-.24.13-.44.29-.58l-.43-.8s-.09.01-.13.01l-.45,2.32c.31.13.52.44.5.79-.01.23-.12.43-.27.56l.88.71c.09-.08.2-.13.33-.16l-.06-2.01c-.4-.07-.69-.43-.67-.84h0Z"/>
      <path class="cls-2" d="M22.77,18.02c-.07,0-.14,0-.22.02l-.83-1.86c.19-.14.33-.36.34-.61.03-.45-.32-.83-.77-.85-.19-.01-.37.05-.51.16l-2.97-2.7s.01-.04.01-.07c.03-.45-.32-.83-.77-.85-.45-.03-.83.32-.85.77-.02.33.16.62.44.76l-.76,2.68h-.02c-.08,0-.17.01-.25.03l-.59-1.19c.18-.14.3-.35.31-.59.03-.45-.32-.83-.77-.85-.45-.03-.83.32-.85.77-.02.39.24.72.59.82l-.35,5.14c-.38.05-.68.36-.7.76-.02.39.24.72.59.82h.05s.04.02.06.02l.35,4.74c-.33.09-.57.38-.59.74-.03.45.32.83.77.85.45.03.83-.32.85-.77.02-.3-.14-.57-.38-.72l.55-2.52c.16,0,.3-.04.43-.12l1.11,1.18c-.08.12-.14.26-.15.43-.02.33.16.61.43.76l-.17.93c-.42.01-.77.34-.79.76-.03.45.32.83.77.85s.83-.32.85-.77c.01-.17-.04-.34-.12-.47l1.34-1.28.94-1.11c.11.06.22.09.34.1.45.03.83-.32.85-.77.02-.29-.13-.56-.35-.71l1.56-3.64s.08.02.12.02c.45.03.83-.32.85-.77s-.32-.83-.77-.85v-.02ZM17.69,12.49l2.87,2.61c-.06.11-.11.23-.12.37-.01.24.08.46.24.62l-.88,1.36c-.12-.08-.26-.14-.42-.15-.04,0-.09,0-.13,0l-.66-2.04c.23-.13.39-.37.41-.66.03-.45-.32-.83-.77-.85-.08,0-.16,0-.23.03l-.51-1.09c.07-.06.14-.13.19-.2h0ZM16.83,18.81l1.25-3.45s.05.01.07.01c.04,0,.09,0,.13,0l.66,2.04c-.23.13-.39.37-.41.66-.02.35.19.66.5.79l-.45,2.32c-.13,0-.24.03-.35.08l-1.11-1.41c.05-.09.07-.2.08-.32.02-.3-.14-.58-.38-.73h-.01ZM16.2,15.54l.76-2.68h.02c.08,0,.16,0,.23-.03l.51,1.09c-.18.14-.31.35-.33.6-.02.3.14.58.38.73l-1.25,3.45s-.05-.01-.07-.01h-.02l-.3-1.69c.28-.12.49-.38.51-.71.02-.33-.16-.62-.44-.76h0ZM14.64,14.45s.06-.02.09-.02l.59,1.19c-.18.14-.3.35-.31.59-.02.3.14.57.37.72l-1.09,2.5.34-4.98h0ZM15.56,21.86c-.45-.03-.83.32-.85.77-.02.35.18.65.48.78l-.54,2.47h-.02l-.35-4.74c.33-.09.57-.38.59-.74.02-.29-.12-.55-.34-.7l1.16-2.66s.06.01.08.01h.02l.3,1.69c-.28.12-.49.38-.51.71-.02.33.16.62.44.76l-.46,1.64h-.01,0ZM17.29,24.32l-1.11-1.18c.08-.12.14-.26.15-.42.02-.33-.16-.62-.44-.76l.46-1.64h.01c.21.01.41-.06.56-.19l1.06,1.34c-.11.13-.18.29-.19.48-.02.31.15.58.39.74l-.26.73-.24.79c-.15,0-.28.04-.4.12h0ZM18.98,25.53l-1.33,1.27s-.1-.06-.16-.08l.16-.9h.02c.45.03.83-.32.85-.77.02-.35-.19-.66-.5-.79l.23-.75.25-.72s.04.01.06.01c.09,0,.18-.01.27-.03l.99.8c-.05.1-.08.21-.09.33-.01.2.06.39.17.54l-.93,1.1h0ZM20.02,23.31l-.88-.71c.16-.14.26-.34.27-.56.02-.35-.19-.66-.5-.79l.45-2.32s.09,0,.13-.01l.43.8c-.17.14-.28.34-.29.58-.02.41.27.77.67.84l.06,2.01c-.12.03-.23.08-.33.16h0ZM20.41,19.53c-.07,0-.14.02-.2.03l-.4-.78c.2-.14.35-.36.36-.63.01-.17-.03-.33-.12-.46l.91-1.42-.55,3.25h0ZM20.7,23.14h-.02l-.06-2.01c.34-.08.6-.37.62-.74.02-.36-.2-.67-.51-.79l.55-3.26s.09,0,.14-.02l.83,1.86c-.19.14-.33.36-.34.61-.02.29.13.55.35.7l-1.56,3.64h0Z"/>
    </g>
  </g>
  <path class="cls-2" d="M10.86,18.3c-.53,0-.55-.66-.55-.74,0-.18-.15-.33-.33-.33h0c-.18,0-.33.15-.33.33,0,.07.01.68.4,1.08.2.2.48.32.79.32,1.04,0,1.39-.87,1.43-1.35,0-.02.07-2.36.07-3.5,0-2.02-1.63-2.95-3.25-2.97-.81-.02-2.03.39-2.81,1.55-.09.13-.16.27-.21.42-.39.06-2.25.49-2.55,2.97-.04.3-.02.61.05.91-.28.24-1.35,1.31-1.29,3.08.04,1,.45,1.84,1.16,2.38.26.2.56.34.87.43-.03.36-.06,1.54.51,2.31.46.61.97.98,1.61,1.14.1.41.64,2.06,2.92,2.06.77,0,1.41-.26,1.9-.76,1.04-1.08.99-2.92.99-2.99v-3.47c-.04-.48-.35-1.4-1.28-1.4-.4,0-.72.13-.97.37-.41.42-.4,1.01-.4,1.08,0,.18.15.32.34.32s.32-.15.32-.34c0,0,0-.39.22-.61.12-.12.28-.18.5-.18.56,0,.62.76.62.77v3.46s.04,1.65-.81,2.53c-.36.38-.83.56-1.43.56-1.51,0-2.04-.86-2.22-1.32.04,0,.08,0,.13,0,.15,0,.3,0,.46-.02,1.08-.09,1.61-.99,1.58-1.82-.04-.81-.57-1.38-1.31-1.38h0c-.43,0-.78.14-1.02.39-.23.25-.34.58-.32.97.01.18.16.32.35.3.18-.01.32-.16.3-.35-.01-.14.01-.34.14-.48.12-.13.3-.19.55-.19h0c.46,0,.65.4.66.75.02.51-.27,1.08-.98,1.14-1.1.09-1.74-.16-2.33-.96-.41-.55-.41-1.46-.39-1.81.03,0,.06,0,.09,0,.19,0,.38-.02.57-.07,1.09-.26,1.42-1.09,1.39-1.73-.04-.72-.55-1.29-1.23-1.37-.4-.05-.72.02-.95.2-.24.19-.27.43-.27.48-.02.18.12.35.29.36s.34-.11.35-.29c.02-.06.14-.15.49-.11.42.05.64.41.66.76.03.4-.19.88-.89,1.05-.54.13-1.14,0-1.62-.37-.55-.41-.87-1.09-.9-1.89-.05-1.21.55-2.03.89-2.39.09.18.21.36.35.51.51.59,1.23.94,2.03.97h.13c.58,0,1.05-.16,1.38-.47.45-.43.47-.97.47-1.02,0-.18-.14-.33-.32-.33-.17,0-.33.14-.34.32,0,.15-.09.91-1.3.86-.61-.02-1.17-.29-1.56-.74-.38-.45-.56-1.02-.49-1.59.21-1.75,1.3-2.23,1.79-2.36,0,.33.09.67.27.98.4.71,1.14,1.13,1.94,1.09.86-.04,1.5-.46,1.7-1.12.17-.57-.04-1.18-.51-1.53-.59-.43-1.24-.14-1.51.08-.14.11-.16.32-.05.46s.32.16.46.05c.04-.03.4-.29.72-.06.25.18.36.51.27.81-.12.39-.52.63-1.1.65-.56.03-1.06-.26-1.34-.76-.26-.46-.25-1,.02-1.4.68-1.01,1.75-1.27,2.26-1.26,1.2.02,2.6.63,2.6,2.32,0,1.13-.07,3.46-.07,3.46-.01.13-.11.74-.78.74v.03Z"/>
  <g>
    <path class="cls-4" d="M36.18,44.08c-.87,0-1.65-.2-2.37-.61-.71-.41-1.27-.97-1.67-1.69-.4-.71-.6-1.51-.6-2.38,0-1.34.44-2.46,1.33-3.36s1.99-1.35,3.31-1.35c1.1,0,2.05.33,2.85.99.8.66,1.3,1.53,1.52,2.6h-1.95c-.12-.35-.29-.66-.53-.92s-.51-.46-.83-.6-.67-.21-1.05-.21c-.76,0-1.4.27-1.91.82-.51.55-.77,1.22-.77,2.03s.26,1.49.77,2.03c.51.54,1.14.81,1.91.81.59,0,1.1-.17,1.53-.5.43-.34.72-.79.89-1.37h1.97c-.2,1.11-.71,2.01-1.51,2.69-.8.68-1.76,1.02-2.88,1.02h-.01Z"/>
    <path class="cls-4" d="M41.95,43.89v-9.46h1.88v9.46h-1.88Z"/>
    <path class="cls-4" d="M51.27,43.23c-.6.57-1.39.86-2.37.86s-1.77-.29-2.37-.86c-.6-.57-.89-1.33-.89-2.26v-4.01h1.88v3.8c0,.5.12.89.37,1.17.25.28.58.42,1.02.42s.77-.14,1.02-.42c.25-.28.37-.67.37-1.17v-3.8h1.88v4.01c0,.95-.3,1.7-.89,2.27h-.01Z"/>
    <path class="cls-4" d="M56.45,44.08c-.57,0-1.08-.11-1.52-.31-.44-.2-.78-.5-1.03-.88s-.37-.81-.37-1.3h1.83c.01.2.06.38.16.52s.24.25.4.31c.17.06.37.09.59.09.18,0,.34-.03.49-.08.15-.05.27-.13.36-.24s.14-.23.14-.38c0-.22-.11-.37-.34-.48-.22-.11-.56-.19-1-.27-.28-.04-.51-.08-.7-.13-.18-.04-.4-.12-.66-.23s-.46-.23-.6-.37c-.15-.14-.28-.33-.39-.57s-.17-.52-.17-.83c0-.65.26-1.18.77-1.6.51-.41,1.19-.62,2.03-.62s1.51.21,2.02.64.77.98.77,1.68h-1.79c0-.55-.35-.82-1.04-.82-.29,0-.52.06-.68.18s-.25.28-.25.49c0,.08.02.16.07.24s.11.13.17.17.16.08.3.12c.14.04.25.07.35.08s.24.04.43.08c.16.04.28.06.35.07.07.01.18.04.35.07s.28.07.37.09.19.07.34.12.25.11.32.16.16.12.27.2.19.16.25.26c.06.09.12.2.18.31.06.11.1.24.12.39s.03.3.03.46c0,.71-.27,1.28-.8,1.71s-1.23.64-2.11.64v.02Z"/>
    <path class="cls-4" d="M64.17,42.22h.85v1.67h-1.32c-.5,0-.95-.1-1.32-.29-.37-.2-.66-.48-.86-.86s-.29-.82-.29-1.33v-2.96h-1.26v-.4l2.75-2.92h.35v1.81h1.92v1.51h-1.88v2.71c0,.34.09.59.28.78s.45.28.79.28h0Z"/>
    <path class="cls-4" d="M73.08,40.39c0,.18-.01.36-.04.55h-5.25c.08.47.26.83.56,1.09s.68.38,1.14.38c.32,0,.6-.07.86-.21s.46-.34.6-.59h1.98c-.26.76-.69,1.35-1.31,1.8s-1.33.67-2.14.67c-1.03,0-1.89-.35-2.57-1.06s-1.03-1.58-1.03-2.61c0-.41.06-.81.17-1.18s.28-.71.5-1.02c.22-.3.47-.56.77-.78.29-.22.62-.39.99-.51.37-.12.76-.18,1.17-.18.69,0,1.32.16,1.87.49s.98.77,1.28,1.32.44,1.17.44,1.83h0ZM69.49,38.34c-.42,0-.77.12-1.06.35-.29.23-.48.55-.59.97h3.36c-.08-.28-.21-.52-.37-.71s-.36-.34-.59-.45-.48-.15-.75-.15h0Z"/>
    <path class="cls-4" d="M78.07,36.9h.62v1.77h-.81c-.53,0-.91.13-1.14.37s-.34.66-.34,1.22v3.61h-1.88v-6.95h1.21l.34.85c.47-.59,1.14-.89,2.01-.89h0Z"/>
    <path class="cls-4" d="M82.83,43.89v-9.01h1.95v9.01h-1.95Z"/>
    <path class="cls-4" d="M92.93,43.89l-.63-1.71h-3.59l-.62,1.71h-2.06l3.52-9.01h1.84l3.64,9.01h-2.11.01ZM90.5,37.27l-1.17,3.21h2.35l-1.18-3.21Z"/>
  </g>
  <circle class="cls-1" cx="67.04" cy="2.23" r="2.23"/>
  <circle class="cls-1" cx="92.94" cy="2.4" r="2.23"/>
  <rect class="cls-5" x="76.06" y="22.21" width="7.79" height="3.4" rx="1.7" ry="1.7"/>
  <path class="cls-6" d="M62,12.06c0,5.14.24,13.83-.08,17.98-.01.16-.04.32-.1.47-1.01,2.53-4.32,1.52-4.25-1.15,0-3.17,0-11.16,0-15.5-.02-.67.07-1.28-.19-1.94-.57-.92-.98,1.24-1.1,1.66-.76,3.26-2.04,8.87-2.59,11.29-.3,1.33-.69,2.76-1.41,3.95-2.85,4.96-10.16,3.9-11.79-1.5-1.11-3.67-1.87-8.03-2.78-11.65-.3-1.16-.46-2.42-.89-3.5-.09-.2-.22-.37-.34-.43-.57-.08-.52,1.11-.54,1.5,0,3.36.09,8.23.1,11.77-.09,2.27.12,3.6-.29,5.4-.55,1.68-2.64,2.03-3.66.77-.46-.61-.61-1.31-.61-1.88.04-3.37-.11-12.28.05-17.22.06-4.89,5.61-7.76,8.63-3.29,1.12,1.7,1.53,3.91,1.92,5.85.54,2.35,1.6,7.02,2.3,10.04.37,1.97,2.14,3.8,3.88,1.95.69-.83.88-2.02,1.12-3.04.46-1.99,1.39-6.08,1.98-8.64.46-1.89.71-3.9,1.66-5.66,2.75-4.92,8.74-2.6,8.97,2.64v.09h0ZM85.57,27.77c2.1,6.55,9.57,4.81,9.65-1.5.07-4.51,0-15.53.02-17.42,0-.55-.23-1.23-.62-1.66-.96-1.12-2.95-.85-3.56.49-.22.47-.28.77-.29,1.18v7.33c0,3.19.01,7.41-.01,9.9.01.26-.18,1.75-.68.92-.5-1.24-.64-2.47-.98-3.76-.77-3.35-2.17-9.46-2.38-10.37-.56-3.05-2.48-5.81-5.67-6.31-2.78-.53-5.69,1.08-6.91,3.63-.9,2-.9,2.73-1.51,5.2-.88,3.72-1.71,7.65-2.58,11.06-.44,1.52-.87.53-.89-.37-.04-.64.01-1.25-.01-3.02-.01-3.08.01-12.78,0-14.28-.03-.54-.22-1.29-.84-1.8-1.48-1.25-3.7-.01-3.63,1.87v13.15c.09,2.87-.44,5.32,1.04,7.81,2.07,3.2,6.73,2.6,8.22-1.01,1.43-3.9,2.79-11.69,3.6-14.75.26-.97.45-2.21,1.49-2.8,1.14-.65,2.4-.06,2.89,1.2.74,2.09,2.46,10.49,2.97,12.42"/>
</svg>