<?xml version="1.0" encoding="UTF-8"?>
<svg id="Layer_1" xmlns="http://www.w3.org/2000/svg" xmlns:xlink="http://www.w3.org/1999/xlink" version="1.1" viewBox="-6 -6 105.05 122.54">
  <!-- Generator: Adobe Illustrator 30.6.0, SVG Export Plug-In . SVG Version: 2.1.4 Build 109)  -->
  <defs>
    <style>
      .st0, .st1, .st2, .st3, .st4, .st5, .st6, .st7, .st8, .st9, .st10, .st11 {
        fill: none;
      }

      .st1 {
        opacity: .85;
        stroke: #fff;
        stroke-width: 6.13px;
      }

      .st1, .st2, .st4 {
        isolation: isolate;
      }

      .st1, .st2, .st4, .st5, .st7, .st9, .st10, .st11 {
        stroke-miterlimit: 3.5;
      }

      .st1, .st2, .st9, .st10 {
        stroke-linecap: round;
      }

      .st12 {
        fill: #24231f;
      }

      .st2 {
        opacity: .38;
        stroke: #b0a899;
        stroke-width: 7.88px;
      }

      .st3 {
        stroke: #faf8f3;
        stroke-width: .95px;
      }

      .st3, .st8 {
        stroke-miterlimit: 5.43;
      }

      .st4 {
        opacity: .22;
        stroke-width: .88px;
      }

      .st4, .st6 {
        stroke: #a96140;
      }

      .st5 {
        stroke: #bab5aa;
        stroke-width: .61px;
      }

      .st6 {
        stroke-dasharray: 7 3.06;
        stroke-miterlimit: 10;
        stroke-width: 2px;
      }

      .st13 {
        fill: url(#linear-gradient);
        fill-rule: evenodd;
      }

      .st7 {
        stroke-width: 1.4px;
      }

      .st7, .st8 {
        stroke: #24231f;
      }

      .st8 {
        stroke-width: 1.36px;
      }

      .st14 {
        fill: #a96140;
      }

      .st9 {
        stroke: url(#linear-gradient2);
      }

      .st9, .st10 {
        stroke-width: 2.63px;
      }

      .st10 {
        stroke: url(#linear-gradient1);
      }

      .st11 {
        stroke: #908879;
        stroke-width: .79px;
      }

      .st15 {
        clip-path: url(#clippath);
      }
    </style>
    <linearGradient id="linear-gradient" x1="94.17" y1="54.88" x2="190.35" y2="-58.27" gradientTransform="translate(-81.25 132.42) rotate(-25.9)" gradientUnits="userSpaceOnUse">
      <stop offset="0" stop-color="#fff"/>
      <stop offset=".45" stop-color="#f9f6ef"/>
      <stop offset="1" stop-color="#dfdacd"/>
    </linearGradient>
    <clipPath id="clippath">
      <path class="st0" d="M82.39,24.68l-2.58-2.04-2.73-1.85-2.98-1.36-2.98-1.12-3.14-.67-3.14-.43-3.14-.18-3.14.06-3.15.31-3,.6-3.05.75-3.06,1-2.96,1.19-2.91,1.29-2.92,1.54-2.72,1.69-2.77,1.83-2.72,1.93-2.53,2.08-2.48,2.18-2.39,2.38-2.34,2.48-2.19,2.53-2.04,2.58-2,2.68-1.8,2.83-1.65,2.88-1.56,2.83-1.36,2.98-1.21,3.03-1.07,3.08-.87,2.99-.67,3.14-.43,3.14-.33,3.09.06,3.14.16,3.1.45,3.2.75,3.05,1.1,3.01,1.39,2.87,1.74,2.82,1.98,2.58,2.33,2.29,2.58,2.04,2.73,1.85,2.98,1.36,2.98,1.12,3.14.67,3.14.43,3.14.18,3.14-.06,3.15-.31,3-.6,3.05-.75,3.06-1,2.96-1.19,2.91-1.29,2.92-1.54,2.72-1.69,2.77-1.83,2.72-1.93,2.53-2.08,2.48-2.18,2.39-2.38,2.34-2.48,2.19-2.53,2.04-2.58,2-2.68,1.8-2.83,1.65-2.88,1.56-2.83,1.36-2.98,1.21-3.03,1.07-3.08.87-2.99.67-3.14.43-3.14.33-3.09-.06-3.14-.16-3.1-.45-3.2-.75-3.05-1.1-3.01-1.39-2.87-1.74-2.82-1.98-2.58-2.33-2.29ZM63.97,45.1l-.05-.1-.15-.05-.19-.15-.29-.1-.54-.1-.54-.1h-.74s-.93.08-.93.08l-1.08.04-1.13.18-1.28.38-1.38.43-1.53.62-1.48.72-1.68.82-1.58,1.01-1.58,1.01-1.59,1.26-1.69,1.31-1.54,1.36-1.59,1.5-1.44,1.56-1.39,1.65-1.3,1.61-1.25,1.7-1.1,1.76-1.1,1.76-.86,1.76-.8,1.61-.66,1.66-.56,1.61-.46,1.57-.26,1.47-.21,1.32-.16,1.18.04,1.08.04.84.14.79.14.54.09.44.14.3.1.2.19.15.05.1.15.05.19.15.29.1.54.1.54.1h.74s.93-.08.93-.08l1.08-.04,1.13-.18,1.28-.38,1.38-.43,1.53-.62,1.48-.72,1.68-.82,1.58-1.01,1.58-1.01,1.59-1.26,1.69-1.31,1.54-1.36,1.59-1.5,1.44-1.56,1.39-1.65,1.3-1.61,1.25-1.71,1.1-1.76,1.1-1.76.86-1.76.8-1.61.66-1.66.56-1.61.46-1.57.26-1.47.21-1.32.16-1.18-.04-1.08-.04-.84-.14-.79-.14-.54-.09-.44-.14-.3-.1-.2-.19-.15Z"/>
    </clipPath>
    <linearGradient id="linear-gradient1" x1="174.32" y1="497.27" x2="148.81" y2="501.93" gradientTransform="translate(103.91 500.84) rotate(-25.9) scale(.88 -.88)" gradientUnits="userSpaceOnUse">
      <stop offset="0" stop-color="#a96140" stop-opacity="0"/>
      <stop offset="1" stop-color="#a96140" stop-opacity=".95"/>
    </linearGradient>
    <linearGradient id="linear-gradient2" x1="107.73" y1="464.04" x2="117.74" y2="445.23" xlink:href="#linear-gradient1"/>
  </defs>
  <g>
    <path class="st13" d="M82.39,24.68l-2.58-2.04-2.73-1.85-2.98-1.36-2.98-1.12-3.14-.67-3.14-.43-3.14-.18-3.14.06-3.15.31-3,.6-3.05.75-3.06,1-2.96,1.19-2.91,1.29-2.92,1.54-2.72,1.69-2.77,1.83-2.72,1.93-2.53,2.08-2.48,2.18-2.39,2.38-2.34,2.48-2.19,2.53-2.04,2.58-2,2.68-1.8,2.83-1.65,2.88-1.56,2.83-1.36,2.98-1.21,3.03-1.07,3.08-.87,2.99-.67,3.14-.43,3.14-.33,3.09.06,3.14.16,3.1.45,3.2.75,3.05,1.1,3.01,1.39,2.87,1.74,2.82,1.98,2.58,2.33,2.29,2.58,2.04,2.73,1.85,2.98,1.36,2.98,1.12,3.14.67,3.14.43,3.14.18,3.14-.06,3.15-.31,3-.6,3.05-.75,3.06-1,2.96-1.19,2.91-1.29,2.92-1.54,2.72-1.69,2.77-1.83,2.72-1.93,2.53-2.08,2.48-2.18,2.39-2.38,2.34-2.48,2.19-2.53,2.04-2.58,2-2.68,1.8-2.83,1.65-2.88,1.56-2.83,1.36-2.98,1.21-3.03,1.07-3.08.87-2.99.67-3.14.43-3.14.33-3.09-.06-3.14-.16-3.1-.45-3.2-.75-3.05-1.1-3.01-1.39-2.87-1.74-2.82-1.98-2.58-2.33-2.29ZM63.97,45.1l-.05-.1-.15-.05-.19-.15-.29-.1-.54-.1-.54-.1h-.74s-.93.08-.93.08l-1.08.04-1.13.18-1.28.38-1.38.43-1.53.62-1.48.72-1.68.82-1.58,1.01-1.58,1.01-1.59,1.26-1.69,1.31-1.54,1.36-1.59,1.5-1.44,1.56-1.39,1.65-1.3,1.61-1.25,1.71-1.1,1.76-1.1,1.76-.86,1.76-.8,1.61-.66,1.66-.56,1.61-.46,1.57-.26,1.47-.21,1.32-.16,1.18.04,1.08.04.84.14.79.14.54.09.44.14.3.1.2.19.15h0l.05.1.15.05.19.15.29.1.54.1.54.1h.74s.93-.08.93-.08l1.08-.04,1.13-.18,1.28-.38,1.38-.43,1.53-.62,1.48-.72,1.68-.82,1.58-1.01,1.58-1.01,1.59-1.26,1.69-1.31,1.54-1.36,1.59-1.5,1.44-1.56,1.39-1.65,1.3-1.61,1.25-1.71,1.1-1.76,1.1-1.76.86-1.76.8-1.61.66-1.66.56-1.61.46-1.57.26-1.47.21-1.32.16-1.18-.04-1.08-.04-.84-.14-.79-.14-.54-.09-.44-.14-.3-.1-.2-.19-.15h0Z"/>
    <g class="st15">
      <g>
        <path class="st2" d="M33.72,65.53l-.55,1.12-.6,1.02-.5.98-.5.98-.4.93-.35.78-.35.78-.35.78-.3.64-.25.73-.3.64-.2.59-.2.59-.1.54-.06.64v.49s.04.59.04.59v.49s.14.54.14.54l.24.49.24.49.34.45.34.45.44.4.49.25"/>
        <path class="st1" d="M61.14,35.49l-.78-.35-.78-.35-.88-.3-.83-.21-.98-.26-.88-.06-1.03-.11h-.98s-1.13-.07-1.13-.07l-1.03.14-1.08.04-1.13.18-1.23.23-1.13.18-1.18.33-1.18.33-1.28.38-1.28.38-1.23.48-1.33.52-1.28.62-1.28.62-1.28.62-1.38.67-1.34.77-1.34.77-1.34.77-1.43.82-1.29.87-1.34,1.02-1.39.92-1.44,1.06-1.34,1.02-1.39,1.16-1.39,1.16-1.34,1.26-1.34,1.26-1.39,1.41-1.25,1.46-1.34,1.51-1.15,1.66-1.15,1.66-1.1,1.76-.95,1.81-.91,1.91-.81,1.86-.71,2.06-.51,1.96-.37,2.01-.37,2.01-.12,2.01.08,1.92.08,1.92.32,1.92.37,1.77.57,1.68.67,1.63.77,1.58.92,1.39,1.02,1.34,1.12,1.29,1.26,1.1,1.32.95,1.41.9,1.56.71,1.52.61,1.71.51,1.62.31,1.82.22,1.87.07,1.82-.03,2.02-.12,1.92-.32,1.97-.47,1.97-.47,2.07-.76,1.93-.81,2.02-.86,2.03-1.11,1.98-1.21,1.98-1.21,1.88-1.4,1.98-1.45,1.79-1.6,1.74-1.7,1.74-1.7,1.64-1.9,1.54-1.85,1.5-1.95,1.35-2,1.3-2.1,1.2-2.05,1.06-2.1.91-2.15.81-2.1.76-2.2.61-2.01.37-2.01.37-2.01.32-1.86.07-1.87.02-1.72-.03-1.57-.18-1.62-.18-1.38-.28-1.33-.33-1.18-.33-1.18-.38-1.04-.48-.99-.43-.89-.53-.84-.48-.74-.58-.69-.58-.69-.53-.6-.78-.6-.58-.45-.73-.5-.78-.35"/>
      </g>
    </g>
    <path class="st5" d="M82.39,24.68l-1.22-1"/>
    <path class="st5" d="M63.97,45.1l1.17.9,1.42.66,1.57.46,1.62.31,1.77-.13,1.72-.23,1.68-.57,1.78-.86,1.63-.91,1.49-1.21,1.39-1.41,1.25-1.46,1-1.71.86-1.76.61-1.76.36-1.76.12-1.77-.08-1.67-.42-1.63-.62-1.53-.87-1.29-1.02-1.09"/>
    <path class="st5" d="M61.62,19.38l-1.17-.9-1.17-.65-1.32-.46-1.28-.11-1.23.23"/>
    <path class="st5" d="M59.12,44.65l1.23-.23,1.18-.33,1.09-.77,1.04-.87.85-1.27.8-1.37.61-1.52.46-1.81.32-1.86.07-1.87-.08-1.92-.22-1.97-.42-1.87-.67-1.87-.72-1.73-.87-1.53-1.02-1.34-1.17-1.14"/>
    <path class="st5" d="M35.5,30.97l-1.12-1.04-1.07-.7-.88-.55-.78-.35-.64-.06-.54.14-.35.29"/>
    <path class="st5" d="M46.72,50.55l.35-.29.2-.59-.04-.84-.23-.99-.28-1.08-.62-1.28-.67-1.38-.77-1.58-1.01-1.58-1.01-1.58-1.11-1.54-1.16-1.63-1.21-1.49-1.26-1.34-1.26-1.34-1.12-1.04"/>
    <path class="st5" d="M13.8,54.94l-1.02-1.09-.92-.89-.53-.84-.48-.74-.09-.69v-.49s.3-.39.3-.39"/>
    <path class="st5" d="M34.48,64.07l-.3.39-.49.24-.84.04-1.03-.11-1.08-.21-1.42-.41-1.47-.51-1.56-.71-1.71-.76-1.66-.9-1.66-.9-1.71-1-1.61-1.05-1.51-1.1-1.41-1.15-1.22-1"/>
    <path class="st5" d="M5.04,82.15l-1.12-1.04-.72-1.24-.58-1.19-.23-1.23v-1.23"/>
    <path class="st5" d="M29.9,77.04l-.11,1.28-.31,1.13-.6,1.27-.8,1.12-1.09,1.02-1.29.87-1.58.77-1.63.67-1.77.37-1.92.32-1.92.08-1.96-.02-1.96-.27-1.86-.32-1.76-.61-1.71-.76-1.37-.8-1.22-1"/>
    <path class="st5" d="M12.32,102.18l-1.02-1.09"/>
    <path class="st5" d="M30.73,81.76l1.07,1.19.87,1.29.62,1.53.38,1.53.13,1.77-.12,1.77-.36,1.76-.61,1.76-.86,1.76-1.05,1.61-1.2,1.56-1.39,1.41-1.54,1.11-1.68,1.06-1.68.82-1.72.47-1.77.37-1.72-.02-1.57-.21-1.57-.46-1.42-.66-1.22-1"/>
    <path class="st5" d="M34.36,82.44l1.23-.23,1.28.11,1.27.36,1.22.75,1.17.9,1.17,1.14,1.02,1.34.87,1.53.72,1.73.62,1.78.47,1.97.22,1.97.08,1.92-.07,1.87-.32,1.86-.51,1.71-.56,1.61-.8,1.37-.9,1.17-.99.97-1.14.67-1.13.43-1.23.23"/>
    <path class="st5" d="M47.64,76.6l.35-.29.54-.14.64.06.78.35.88.55,1.07.7,1.07.95,1.17,1.14,1.26,1.34,1.16,1.39,1.31,1.44,1.16,1.63,1.11,1.54,1.01,1.58,1.01,1.58.77,1.58.67,1.38.48,1.23.43,1.13.23.99v.74s-.16.69-.16.69l-.35.29"/>
    <path class="st5" d="M60.53,62.41l-.3.39-.15.44.19.64.38.79.68.89.82.94,1.07.95,1.26,1.1,1.36,1.05,1.51,1.1,1.61,1.05,1.71,1,1.71,1,1.66.9,1.71.76,1.56.71,1.47.51,1.27.36,1.23.26,1.03.11.69-.09.64-.19.3-.39"/>
    <path class="st5" d="M64.92,48.55l-.11,1.28.28,1.33.58,1.19.77,1.09,1.02,1.09,1.22,1,1.51.85,1.61.8,1.71.51,1.91.42,1.96.27,1.96.02,1.92-.08,1.92-.32,1.72-.47,1.78-.62,1.48-.72,1.24-.97,1.09-1.02.95-1.07.51-1.22.36-1.27v-1.23"/>
    <path class="st5" d="M82.39,24.68l-2.19-1.74-2.54-1.45-2.64-1.16-2.89-.67-3.04-.48-3.34-.09-3.44.21-3.49.6-3.6.89-3.6,1.14-3.75,1.58-3.61,1.87-3.76,2.07-3.57,2.46-3.62,2.61-3.33,2.96-3.38,3.11-3.18,3.25-2.94,3.5-2.79,3.55-2.45,3.75-2.3,3.81-2.06,3.81-1.76,3.91-1.42,3.86-1.22,3.77-.83,3.82-.53,3.68-.14,3.49.11,3.49.45,3.2.75,3.05,1,2.81,1.35,2.52,1.74,2.33,1.94,1.99,2.19,1.74"/>
    <path class="st5" d="M81.2,42.11l-1.61-1.3-1.85-1.05-1.96-.76-2.11-.56-2.35-.32-2.36-.08-2.51.12-2.61.41-2.61.66-2.71.95-2.76,1.1-2.77,1.34-2.62,1.64-2.72,1.69-2.58,1.98-2.48,2.18-2.43,2.28-2.39,2.38-2.14,2.63-2.04,2.58-1.85,2.73-1.7,2.78-1.51,2.93-1.31,2.83-1.06,2.84-.82,2.84-.62,2.74-.42,2.65-.18,2.65.12,2.51.32,2.41.56,2.17.81,2.17,1.01,1.83,1.21,1.73,1.46,1.49,1.61,1.3,1.85,1.05,1.96.76,2.11.56,2.26.37,2.46.03,2.51-.12,2.61-.41,2.61-.66,2.71-.95,2.76-1.1,2.67-1.3,2.72-1.69,2.72-1.69,2.58-1.98,2.48-2.18,2.43-2.28,2.39-2.38,2.14-2.63,2.04-2.58,1.85-2.73,1.7-2.78,1.51-2.93,1.31-2.83,1.06-2.84.82-2.84.62-2.74.42-2.65.18-2.65-.12-2.51-.32-2.41-.56-2.17-.81-2.17-1.01-1.83-1.21-1.73-1.46-1.49"/>
    <path class="st11" d="M82.39,24.68l-1.22-1-1.42-.66-1.57-.46-1.57-.21-1.72-.02-1.77.37-1.72.47-1.68.82-1.68,1.06-1.54,1.11-1.39,1.41-1.2,1.56-1.05,1.61-.86,1.76-.61,1.76-.36,1.76-.12,1.77.13,1.77.38,1.53.62,1.53.87,1.29,1.07,1.19,1.17.9"/>
    <path class="st11" d="M56.68,17.26l-1.23.23-1.13.43-1.14.67-.99.97-.9,1.17-.8,1.37-.56,1.61-.51,1.71-.32,1.86-.07,1.87.08,1.92.22,1.97.47,1.97.62,1.78.72,1.73.87,1.53,1.02,1.34,1.17,1.14,1.17.9,1.22.75,1.27.36,1.28.11,1.23-.23"/>
    <path class="st11" d="M30.47,28.41l-.35.29-.16.69v.74s.23.99.23.99l.43,1.13.48,1.23.67,1.38.77,1.58,1.01,1.58,1.01,1.58,1.11,1.54,1.16,1.63,1.31,1.44,1.16,1.39,1.26,1.34,1.17,1.14,1.07.95,1.07.7.88.55.78.35.64.06.54-.14.35-.29"/>
    <path class="st11" d="M10.76,50.19l.3-.39.64-.19.69-.09,1.03.11,1.23.26,1.27.36,1.47.51,1.56.71,1.71.76,1.66.9,1.71,1,1.71,1,1.61,1.05,1.51,1.1,1.36,1.05,1.26,1.1,1.07.95.82.94.68.89.38.79.19.64-.15.44-.3.39"/>
    <path class="st11" d="M2.39,77.45v-1.23s.37-1.27.37-1.27l.51-1.22.95-1.07,1.09-1.02,1.24-.97,1.48-.72,1.78-.62,1.72-.47,1.92-.32,1.92-.08,1.96.02,1.96.27,1.91.42,1.71.51,1.61.8,1.51.85,1.22,1,1.02,1.09.77,1.09.58,1.19.28,1.33-.11,1.28"/>
    <path class="st11" d="M12.32,102.18l-1.02-1.09-.87-1.29-.62-1.53-.42-1.63-.08-1.67.12-1.77.36-1.76.61-1.76.86-1.76,1-1.71,1.25-1.46,1.39-1.41,1.49-1.21,1.63-.91,1.78-.86,1.68-.57,1.72-.23,1.77-.13,1.62.31,1.57.46,1.42.66,1.17.9,1.07,1.19"/>
    <path class="st11" d="M33.09,107.48l-1.17-1.14-1.02-1.34-.87-1.53-.72-1.73-.67-1.87-.42-1.87-.22-1.97-.08-1.92.07-1.87.32-1.86.46-1.81.61-1.52.8-1.37.85-1.27,1.04-.87,1.09-.77,1.18-.33,1.23-.23"/>
    <path class="st11" d="M39.26,109.37l-1.23.23-1.28-.11-1.32-.46-1.17-.65-1.17-.9"/>
    <path class="st11" d="M59.21,95.9l-1.12-1.04-1.26-1.34-1.26-1.34-1.21-1.49-1.16-1.63-1.11-1.54-1.01-1.58-1.01-1.58-.77-1.58-.67-1.38-.62-1.28-.28-1.08-.23-.99-.04-.84.2-.59.35-.29"/>
    <path class="st11" d="M64.59,98.17l-.35.29-.54.14-.64-.06-.78-.35-.88-.55-1.07-.7-1.12-1.04"/>
    <path class="st11" d="M80.91,71.93l-1.22-1-1.41-1.15-1.51-1.1-1.61-1.05-1.71-1-1.66-.9-1.66-.9-1.71-.76-1.56-.71-1.47-.51-1.42-.41-1.08-.21-1.03-.11-.84.04-.49.24-.3.39"/>
    <path class="st11" d="M83.65,77.07l.3-.39v-.49s-.08-.69-.08-.69l-.48-.74-.53-.84-.92-.89-1.02-1.09"/>
    <path class="st11" d="M89.67,44.71l-1.22-1-1.37-.8-1.71-.76-1.76-.61-1.86-.32-1.96-.27-1.96-.02-1.92.08-1.92.32-1.77.37-1.63.67-1.58.77-1.29.87-1.09,1.02-.8,1.12-.6,1.27-.31,1.13-.11,1.28"/>
    <path class="st11" d="M92.31,50.64v-1.23s-.22-1.23-.22-1.23l-.58-1.19-.72-1.24-1.12-1.04"/>
    <path class="st11" d="M12.32,102.18l2.19,1.74,2.54,1.45,2.64,1.16,2.89.67,3.04.48,3.34.09,3.44-.21,3.49-.6,3.6-.89,3.6-1.14,3.75-1.58,3.61-1.87,3.76-2.07,3.57-2.46,3.62-2.61,3.33-2.96,3.38-3.11,3.18-3.25,2.94-3.5,2.79-3.55,2.45-3.75,2.3-3.81,2.06-3.81,1.76-3.91,1.42-3.86,1.22-3.77.83-3.82.53-3.68.14-3.49-.11-3.49-.45-3.2-.75-3.05-1-2.81-1.35-2.52-1.74-2.33-1.94-1.99"/>
    <path class="st11" d="M65.11,27.58l-1.61-1.3-1.85-1.05-1.96-.76-2.11-.56-2.26-.37-2.46-.03-2.51.12-2.61.41-2.61.66-2.71.95-2.76,1.1-2.67,1.3-2.72,1.69-2.72,1.69-2.58,1.98-2.48,2.18-2.43,2.28-2.39,2.38-2.14,2.63-2.04,2.58-1.85,2.73-1.7,2.78-1.51,2.93-1.31,2.83-1.06,2.84-.82,2.84-.62,2.74-.42,2.65-.18,2.65.12,2.51.32,2.41.56,2.17.81,2.17,1.01,1.83,1.21,1.73,1.46,1.49,1.61,1.3,1.85,1.05,1.96.76,2.11.56,2.35.32,2.36.08,2.51-.12,2.61-.41,2.61-.66,2.71-.95,2.76-1.1,2.77-1.34,2.62-1.64,2.72-1.69,2.58-1.98,2.48-2.18,2.43-2.28,2.39-2.38,2.14-2.63,2.04-2.58,1.85-2.73,1.7-2.78,1.51-2.93,1.31-2.83,1.06-2.84.82-2.84.62-2.74.42-2.65.18-2.65-.12-2.51-.32-2.41-.56-2.17-.81-2.17-1.01-1.83-1.21-1.73-1.46-1.49"/>
    <path class="st4" d="M8.55,75.56l-.21,1.32-.16,1.18-.11,1.28v1.23s-.03,1.23-.03,1.23l.08,1.18.18,1.13.18,1.13.23,1.23.28,1.08.33,1.18.43,1.13.48.99.53,1.09.63,1.04.58.94.73.99.68.89.82.94.78.84.92.89.88.8.97.75,1.07.7,1.02.6,1.07.7,1.12.55,1.12.55,1.22.51,1.22.51,1.27.36,1.32.46,1.23.26,1.37.31,1.32.21,1.42.16,1.42.16,1.37.07,1.37.07,1.47.02,1.43-.08,1.52-.13,1.38-.18,1.48-.23,1.48-.23,1.48-.23,1.38-.43,1.53-.38,1.38-.43,1.48-.47,1.43-.57,1.33-.52,1.38-.67,1.38-.67,1.38-.67,1.24-.72,1.34-.77,1.29-.87,1.19-.82,1.19-.82,1.24-.97,1.14-.92.99-.97"/>
    <path class="st4" d="M63.58,44.8l-1.27-.36-1.37-.31-1.37-.31-1.32-.21-1.32-.21-1.42-.16-1.47-.02-1.37-.07-1.47-.02-1.43.08-1.43.08-1.48.23-1.48.23-1.48.23-1.43.33-1.43.33-1.43.33-1.48.47-1.38.43-1.43.57-1.43.57-1.38.67-1.28.62-1.38.67-1.34.77-1.34.77-1.19.82-1.29.87-1.19.82-1.14.92-1.14.92-1.09,1.02-1.09,1.02-.95,1.07-.99.97-.9,1.17-.95,1.07-.8,1.12-.9,1.17-.65,1.17-.75,1.22-.65,1.17-.55,1.12-.6,1.27-.41,1.17-.46,1.32-.41,1.17-.26,1.23-.26,1.23"/>
    <path class="st7" d="M82.39,24.68l-2.58-2.04-2.73-1.85-2.98-1.36-2.98-1.12-3.14-.67-3.14-.43-3.14-.18-3.14.06-3.15.31-3,.6-3.05.75-3.06,1-2.96,1.19-2.91,1.29-2.92,1.54-2.72,1.69-2.77,1.83-2.72,1.93-2.53,2.08-2.48,2.18-2.39,2.38-2.34,2.48-2.19,2.53-2.04,2.58-2,2.68-1.8,2.83-1.65,2.88-1.56,2.83-1.36,2.98-1.21,3.03-1.07,3.08-.87,2.99-.67,3.14-.43,3.14-.33,3.09.06,3.14.16,3.1.45,3.2.75,3.05,1.1,3.01,1.39,2.87,1.74,2.82,1.98,2.58,2.33,2.29,2.58,2.04,2.73,1.85,2.98,1.36,2.98,1.12,3.14.67,3.14.43,3.14.18,3.14-.06,3.15-.31,3-.6,3.05-.75,3.06-1,2.96-1.19,2.91-1.29,2.92-1.54,2.72-1.69,2.77-1.83,2.72-1.93,2.53-2.08,2.48-2.18,2.39-2.38,2.34-2.48,2.19-2.53,2.04-2.58,2-2.68,1.8-2.83,1.65-2.88,1.56-2.83,1.36-2.98,1.21-3.03,1.07-3.08.87-2.99.67-3.14.43-3.14.33-3.09-.06-3.14-.16-3.1-.45-3.2-.75-3.05-1.1-3.01-1.39-2.87-1.74-2.82-1.98-2.58-2.33-2.29ZM63.97,45.1l-.05-.1-.15-.05-.19-.15-.29-.1-.54-.1-.54-.1h-.74s-.93.08-.93.08l-1.08.04-1.13.18-1.28.38-1.38.43-1.53.62-1.48.72-1.68.82-1.58,1.01-1.58,1.01-1.59,1.26-1.69,1.31-1.54,1.36-1.59,1.5-1.44,1.56-1.39,1.65-1.3,1.61-1.25,1.71-1.1,1.76-1.1,1.76-.86,1.76-.8,1.61-.66,1.66-.56,1.61-.46,1.57-.26,1.47-.21,1.32-.16,1.18.04,1.08.04.84.14.79.14.54.09.44.14.3.1.2.19.15h0l.05.1.15.05.19.15.29.1.54.1.54.1h.74s.93-.08.93-.08l1.08-.04,1.13-.18,1.28-.38,1.38-.43,1.53-.62,1.48-.72,1.68-.82,1.58-1.01,1.58-1.01,1.59-1.26,1.69-1.31,1.54-1.36,1.59-1.5,1.44-1.56,1.39-1.65,1.3-1.61,1.25-1.71,1.1-1.76,1.1-1.76.86-1.76.8-1.61.66-1.66.56-1.61.46-1.57.26-1.47.21-1.32.16-1.18-.04-1.08-.04-.84-.14-.79-.14-.54-.09-.44-.14-.3-.1-.2-.19-.15h0Z"/>
    <path class="st10" d="M51.47,43.24h-1.23s-1.18.07-1.18.07l-1.18.08-1.28.13-1.13.18-1.23.23-1.23.23-1.23.23-1.18.33-1.18.33-1.18.33-1.23.48-1.13.43-1.13.43-1.23.48-1.09.53-1.19.58-1.09.53-1.04.63"/>
    <path class="st9" d="M11.59,93.38l.53.84.63.79.58.69.63.79.73.75.68.65.73.75.78.6.83.7.78.6.88.55.88.55.88.55.98.5.93.4,1.08.45.93.4,1.03.36,1.03.36"/>
    <circle class="st14" cx="29.09" cy="49.47" r="3.95" transform="translate(-18.69 17.68) rotate(-25.9)"/>
    <circle class="st14" cx="27.08" cy="104.66" r="3.19" transform="translate(-43 22.34) rotate(-25.9)"/>
  </g>
  <g>
    <line class="st8" x1="58.92" y1="4.75" x2="56.46" y2="4.73"/>
    <line class="st8" x1="68.25" y1="4.82" x2="70.71" y2="4.84"/>
    <rect class="st14" x="45.49" y=".03" width="10.97" height="9.32" rx="1.09" ry="1.09" transform="translate(.04 -.38) rotate(.43)"/>
    <rect class="st14" x="70.71" y=".22" width="10.97" height="9.32" rx="1.09" ry="1.09" transform="translate(.04 -.57) rotate(.43)"/>
    <line class="st3" x1="51" y1=".72" x2="50.94" y2="8.67"/>
    <line class="st3" x1="76.23" y1=".91" x2="76.17" y2="8.86"/>
    <rect class="st12" x="58.92" y=".67" width="9.32" height="8.23" rx="1.9" ry="1.9" transform="translate(.04 -.47) rotate(.43)"/>
  </g>
  <path class="st6" d="M40.29,6.79C17.85,13.62.82,37.89.82,37.89"/>
</svg>