<svg width="100%" viewBox="0 0 690 278" role="img" xmlns="http://www.w3.org/2000/svg" style=""><title style="fill:rgb(0, 0, 0);stroke:none;color:rgb(11, 11, 11);stroke-width:1px;stroke-linecap:butt;stroke-linejoin:miter;opacity:1;font-family:&quot;Anthropic Sans&quot;, -apple-system, BlinkMacSystemFont, &quot;Segoe UI&quot;, sans-serif;font-size:16px;font-weight:400;text-anchor:start;dominant-baseline:auto">Geometry mark favicon sheet</title><desc style="fill:rgb(0, 0, 0);stroke:none;color:rgb(11, 11, 11);stroke-width:1px;stroke-linecap:butt;stroke-linejoin:miter;opacity:1;font-family:&quot;Anthropic Sans&quot;, -apple-system, BlinkMacSystemFont, &quot;Segoe UI&quot;, sans-serif;font-size:16px;font-weight:400;text-anchor:start;dominant-baseline:auto">The standalone globe mark shown at display size, with simplified 64, 32 and 16 pixel variants on tiles.</desc>
<defs>

<radialGradient id="s2" cx="34%" cy="28%" r="78%"><stop offset="0%" stop-color="#FFFFFF"/><stop offset="52%" stop-color="#FBFAF5"/><stop offset="100%" stop-color="#E3DFD4"/></radialGradient>
<clipPath id="b2"><circle cx="0" cy="0" r="44"/></clipPath>
<linearGradient id="uA" gradientUnits="userSpaceOnUse" x1="32.3" y1="-21.7" x2="36.8" y2="-5"><stop offset="0%" stop-color="#A9603F" stop-opacity="0"/><stop offset="100%" stop-color="#A9603F" stop-opacity="0.85"/></linearGradient>
<linearGradient id="uB" gradientUnits="userSpaceOnUse" x1="1.5" y1="28.9" x2="-23.9" y2="19"><stop offset="0%" stop-color="#A9603F" stop-opacity="0"/><stop offset="100%" stop-color="#A9603F" stop-opacity="0.85"/></linearGradient>
<linearGradient id="uC" gradientUnits="userSpaceOnUse" x1="-19.6" y1="-22.1" x2="-12.4" y2="-39.05"><stop offset="0%" stop-color="#A9603F" stop-opacity="0"/><stop offset="100%" stop-color="#A9603F" stop-opacity="0.85"/></linearGradient>
<g id="full">
<path d="M-37.4 -42.2 A62 56 -25 0 1 44.7 -42.1" fill="none" stroke="#C3BDAE" stroke-width="0.7" stroke-dasharray="2.5 2.5"/>
<circle r="44" fill="url(#s2)"/>
<g clip-path="url(#b2)">
<g transform="rotate(-12)" fill="none" stroke="#BAB5A9" stroke-width="0.7">
<ellipse rx="44" ry="42.5"/><ellipse rx="31" ry="42.5"/><ellipse rx="17" ry="42.5"/>
<line x1="0" y1="-42.5" x2="0" y2="42.5"/>
<ellipse rx="44" ry="11.4"/>
<ellipse cy="-21.3" rx="38.1" ry="9.9"/><ellipse cy="21.3" rx="38.1" ry="9.9"/>
<ellipse cy="-36.8" rx="22" ry="5.7"/><ellipse cy="36.8" rx="22" ry="5.7"/>
<g stroke="#8F8879" stroke-width="0.9">
<path d="M-44 0 A44 11.4 0 0 0 44 0"/>
<path d="M-38.1 -21.3 A38.1 9.9 0 0 0 38.1 -21.3"/>
<path d="M-38.1 21.3 A38.1 9.9 0 0 0 38.1 21.3"/>
<path d="M-22 -36.8 A22 5.7 0 0 0 22 -36.8"/>
<path d="M-22 36.8 A22 5.7 0 0 0 22 36.8"/>
</g>
</g>
<ellipse cx="-25" cy="-26" rx="15" ry="9" transform="rotate(-32 -25 -26)" fill="#FFFFFF" opacity="0.75"/>
<path d="M44 0a44 44 0 0 1-44 44 44 44 0 0 1-31.1-12.9 52 52 0 0 0 75.1-31.1z" fill="#B8B2A3" opacity="0.28"/>
<path d="M32.3 -21.7 A44 16 -22 0 1 36.8 -5" fill="none" stroke="url(#uA)" stroke-width="1.7" stroke-linecap="round"/>
<path d="M1.5 28.9 A40 28 18 0 1 -23.9 19" fill="none" stroke="url(#uB)" stroke-width="1.5" stroke-linecap="round"/>
<path d="M-19.6 -22.1 A20 43 -8 0 1 -12.4 -39.05" fill="none" stroke="url(#uC)" stroke-width="1.3" stroke-linecap="round"/>
<circle cx="-12.4" cy="-39.05" r="5.5" fill="none" stroke="#A9603F" stroke-width="0.7" opacity="0.4"/>
</g>
<circle r="44" fill="none" stroke="#24231F" stroke-width="1.6"/>
<circle cx="36.8" cy="-5" r="3" fill="#A9603F"/>
<circle cx="-23.9" cy="19" r="2.5" fill="#A9603F"/>
<circle cx="-12.4" cy="-39.05" r="2.2" fill="#A9603F"/>
<path d="M7.6 -57 L-12.4 -39.05" stroke="#A9603F" stroke-width="0.9" stroke-dasharray="2.5 2" opacity="0.5"/>
<g transform="translate(7.6 -57) rotate(-20)">
<line x1="-3.4" y1="0" x2="-5.2" y2="0" stroke="#24231F" stroke-width="1"/>
<line x1="3.4" y1="0" x2="5.2" y2="0" stroke="#24231F" stroke-width="1"/>
<rect x="-13.2" y="-3" width="8" height="6" rx="0.8" fill="#A9603F"/>
<rect x="5.2" y="-3" width="8" height="6" rx="0.8" fill="#A9603F"/>
<line x1="-9.2" y1="-2.6" x2="-9.2" y2="2.6" stroke="#FAF8F3" stroke-width="0.7"/>
<line x1="9.2" y1="-2.6" x2="9.2" y2="2.6" stroke="#FAF8F3" stroke-width="0.7"/>
<rect x="-3.4" y="-2.7" width="6.8" height="5.4" rx="1.3" fill="#24231F"/>
</g>
</g>
<g id="mid">
<circle r="44" fill="url(#s2)"/>
<g transform="rotate(-12)" fill="none" stroke="#9A948A" stroke-width="2.6">
<ellipse rx="17" ry="42.5"/><ellipse rx="44" ry="11.4"/>
</g>
<circle r="44" fill="none" stroke="#24231F" stroke-width="4"/>
<path d="M20 -20 A44 16 -22 0 1 33 -11" fill="none" stroke="#A9603F" stroke-width="3.4" stroke-linecap="round" opacity="0.45"/>
<circle cx="33" cy="-11" r="7.5" fill="#A9603F"/>
</g>
<g id="tiny">
<circle r="42" fill="url(#s2)"/>
<g transform="rotate(-12)" fill="none" stroke="#8F8879" stroke-width="5">
<ellipse rx="16" ry="40"/><ellipse rx="42" ry="11"/>
</g>
<circle r="42" fill="none" stroke="#24231F" stroke-width="7"/>
<circle cx="32" cy="-12" r="11" fill="#A9603F"/>
</g>
</defs>
<rect width="680" height="268" fill="#FAF8F3" style="fill:rgb(250, 248, 243);stroke:none;color:rgb(11, 11, 11);stroke-width:1px;stroke-linecap:butt;stroke-linejoin:miter;opacity:1;font-family:&quot;Anthropic Sans&quot;, -apple-system, BlinkMacSystemFont, &quot;Segoe UI&quot;, sans-serif;font-size:16px;font-weight:400;text-anchor:start;dominant-baseline:auto"/>
<use href="#full" transform="translate(160 150) scale(2)" style="fill:rgb(0, 0, 0);stroke:none;color:rgb(11, 11, 11);stroke-width:1px;stroke-linecap:butt;stroke-linejoin:miter;opacity:1;font-family:&quot;Anthropic Sans&quot;, -apple-system, BlinkMacSystemFont, &quot;Segoe UI&quot;, sans-serif;font-size:16px;font-weight:400;text-anchor:start;dominant-baseline:auto"/>
<rect x="340" y="80" width="80" height="80" rx="16" fill="#FFFFFF" stroke="#E3DED1" stroke-width="1" style="fill:rgb(255, 255, 255);stroke:rgb(227, 222, 209);color:rgb(11, 11, 11);stroke-width:1px;stroke-linecap:butt;stroke-linejoin:miter;opacity:1;font-family:&quot;Anthropic Sans&quot;, -apple-system, BlinkMacSystemFont, &quot;Segoe UI&quot;, sans-serif;font-size:16px;font-weight:400;text-anchor:start;dominant-baseline:auto"/>
<use href="#mid" transform="translate(380 120) scale(0.727)" style="fill:rgb(0, 0, 0);stroke:none;color:rgb(11, 11, 11);stroke-width:1px;stroke-linecap:butt;stroke-linejoin:miter;opacity:1;font-family:&quot;Anthropic Sans&quot;, -apple-system, BlinkMacSystemFont, &quot;Segoe UI&quot;, sans-serif;font-size:16px;font-weight:400;text-anchor:start;dominant-baseline:auto"/>
<rect x="446" y="96" width="48" height="48" rx="10" fill="#FFFFFF" stroke="#E3DED1" stroke-width="1" style="fill:rgb(255, 255, 255);stroke:rgb(227, 222, 209);color:rgb(11, 11, 11);stroke-width:1px;stroke-linecap:butt;stroke-linejoin:miter;opacity:1;font-family:&quot;Anthropic Sans&quot;, -apple-system, BlinkMacSystemFont, &quot;Segoe UI&quot;, sans-serif;font-size:16px;font-weight:400;text-anchor:start;dominant-baseline:auto"/>
<use href="#mid" transform="translate(470 120) scale(0.364)" style="fill:rgb(0, 0, 0);stroke:none;color:rgb(11, 11, 11);stroke-width:1px;stroke-linecap:butt;stroke-linejoin:miter;opacity:1;font-family:&quot;Anthropic Sans&quot;, -apple-system, BlinkMacSystemFont, &quot;Segoe UI&quot;, sans-serif;font-size:16px;font-weight:400;text-anchor:start;dominant-baseline:auto"/>
<rect x="514" y="104" width="32" height="32" rx="7" fill="#FFFFFF" stroke="#E3DED1" stroke-width="1" style="fill:rgb(255, 255, 255);stroke:rgb(227, 222, 209);color:rgb(11, 11, 11);stroke-width:1px;stroke-linecap:butt;stroke-linejoin:miter;opacity:1;font-family:&quot;Anthropic Sans&quot;, -apple-system, BlinkMacSystemFont, &quot;Segoe UI&quot;, sans-serif;font-size:16px;font-weight:400;text-anchor:start;dominant-baseline:auto"/>
<use href="#tiny" transform="translate(530 120) scale(0.19)" style="fill:rgb(0, 0, 0);stroke:none;color:rgb(11, 11, 11);stroke-width:1px;stroke-linecap:butt;stroke-linejoin:miter;opacity:1;font-family:&quot;Anthropic Sans&quot;, -apple-system, BlinkMacSystemFont, &quot;Segoe UI&quot;, sans-serif;font-size:16px;font-weight:400;text-anchor:start;dominant-baseline:auto"/>
<text x="380" y="182" text-anchor="middle" style="fill:rgb(143, 136, 121);stroke:none;color:rgb(11, 11, 11);stroke-width:1px;stroke-linecap:butt;stroke-linejoin:miter;opacity:1;font-family:&quot;Space Grotesk&quot;, ui-sans-serif, system-ui, sans-serif;font-size:12px;font-weight:400;text-anchor:middle;dominant-baseline:auto">64</text>
<text x="470" y="182" text-anchor="middle" style="fill:rgb(143, 136, 121);stroke:none;color:rgb(11, 11, 11);stroke-width:1px;stroke-linecap:butt;stroke-linejoin:miter;opacity:1;font-family:&quot;Space Grotesk&quot;, ui-sans-serif, system-ui, sans-serif;font-size:12px;font-weight:400;text-anchor:middle;dominant-baseline:auto">32</text>
<text x="530" y="182" text-anchor="middle" style="fill:rgb(143, 136, 121);stroke:none;color:rgb(11, 11, 11);stroke-width:1px;stroke-linecap:butt;stroke-linejoin:miter;opacity:1;font-family:&quot;Space Grotesk&quot;, ui-sans-serif, system-ui, sans-serif;font-size:12px;font-weight:400;text-anchor:middle;dominant-baseline:auto">16</text>
</svg>